<svg viewBox="0 0 18 18" xmlns="http://www.w3.org/2000/svg">
  <path fill-rule="evenodd" d="M7.5 1.5H1.5V16.5H7.5V1.5ZM1.5 0H0V1.5V16.5V18H1.5H7.5H9V16.5V13.5C9 15.9853 11.0147 18 13.5 18C15.9853 18 18 15.9853 18 13.5C18 11.0147 15.9853 9 13.5 9C15.9853 9 18 6.98528 18 4.5C18 2.01472 15.9853 0 13.5 0C11.0147 0 9 2.01472 9 4.5V1.5V0H7.5H1.5ZM9 4.5C9 6.98528 11.0147 9 13.5 9C11.0147 9 9 11.0147 9 13.5V4.5ZM13.5 7.5C15.1569 7.5 16.5 6.15685 16.5 4.5C16.5 2.84315 15.1569 1.5 13.5 1.5C11.8431 1.5 10.5 2.84315 10.5 4.5C10.5 6.15685 11.8431 7.5 13.5 7.5ZM16.5 13.5C16.5 15.1569 15.1569 16.5 13.5 16.5C11.8431 16.5 10.5 15.1569 10.5 13.5C10.5 11.8431 11.8431 10.5 13.5 10.5C15.1569 10.5 16.5 11.8431 16.5 13.5Z"/>
</svg>
